<mxfile host="Electron" agent="Mozilla/5.0 (X11; Linux x86_64) AppleWebKit/537.36 (KHTML, like Gecko) draw.io/24.7.17 Chrome/128.0.6613.36 Electron/32.0.1 Safari/537.36" version="24.7.17">
  <diagram name="Page-1" id="2YBvvXClWsGukQMizWep">
    <mxGraphModel dx="1793" dy="1901" grid="0" gridSize="10" guides="0" tooltips="1" connect="0" arrows="0" fold="1" page="1" pageScale="1" pageWidth="1100" pageHeight="850" math="0" shadow="0">
      <root>
        <mxCell id="0" />
        <mxCell id="1" parent="0" />
        <mxCell id="368ryIqdzKqAlcXKy1S3-1" value="Usuário" style="shape=umlActor;verticalLabelPosition=bottom;verticalAlign=top;html=1;" parent="1" vertex="1">
          <mxGeometry x="102" y="79" width="30" height="60" as="geometry" />
        </mxCell>
        <mxCell id="368ryIqdzKqAlcXKy1S3-3" value="" style="endArrow=none;dashed=1;html=1;rounded=0;" parent="1" edge="1">
          <mxGeometry width="50" height="50" relative="1" as="geometry">
            <mxPoint x="117.27999999999997" y="503" as="sourcePoint" />
            <mxPoint x="117" y="164" as="targetPoint" />
          </mxGeometry>
        </mxCell>
        <mxCell id="368ryIqdzKqAlcXKy1S3-13" style="edgeStyle=orthogonalEdgeStyle;rounded=0;orthogonalLoop=1;jettySize=auto;html=1;curved=0;" parent="1" edge="1">
          <mxGeometry relative="1" as="geometry">
            <mxPoint x="332" y="201" as="sourcePoint" />
            <mxPoint x="475" y="201" as="targetPoint" />
            <Array as="points" />
          </mxGeometry>
        </mxCell>
        <mxCell id="368ryIqdzKqAlcXKy1S3-14" value="simulaOrdem(dados)" style="edgeLabel;html=1;align=center;verticalAlign=middle;resizable=0;points=[];" parent="368ryIqdzKqAlcXKy1S3-13" vertex="1" connectable="0">
          <mxGeometry x="-0.1276" y="1" relative="1" as="geometry">
            <mxPoint x="4" y="-7" as="offset" />
          </mxGeometry>
        </mxCell>
        <mxCell id="368ryIqdzKqAlcXKy1S3-2" value="" style="html=1;points=[[0,0,0,0,5],[0,1,0,0,-5],[1,0,0,0,5],[1,1,0,0,-5]];perimeter=orthogonalPerimeter;outlineConnect=0;targetShapes=umlLifeline;portConstraint=eastwest;newEdgeStyle={&quot;curved&quot;:0,&quot;rounded&quot;:0};" parent="1" vertex="1">
          <mxGeometry x="112" y="183" width="10" height="286" as="geometry" />
        </mxCell>
        <mxCell id="368ryIqdzKqAlcXKy1S3-11" value=":APIB3" style="shape=umlLifeline;perimeter=lifelinePerimeter;whiteSpace=wrap;html=1;container=1;dropTarget=0;collapsible=0;recursiveResize=0;outlineConnect=0;portConstraint=eastwest;newEdgeStyle={&quot;curved&quot;:0,&quot;rounded&quot;:0};" parent="1" vertex="1">
          <mxGeometry x="635" y="96" width="130" height="403" as="geometry" />
        </mxCell>
        <mxCell id="368ryIqdzKqAlcXKy1S3-12" value="" style="html=1;points=[[0,0,0,0,5],[0,1,0,0,-5],[1,0,0,0,5],[1,1,0,0,-5]];perimeter=orthogonalPerimeter;outlineConnect=0;targetShapes=umlLifeline;portConstraint=eastwest;newEdgeStyle={&quot;curved&quot;:0,&quot;rounded&quot;:0};" parent="368ryIqdzKqAlcXKy1S3-11" vertex="1">
          <mxGeometry x="61" y="149" width="9" height="40" as="geometry" />
        </mxCell>
        <mxCell id="YaiohfjEREE9zaIFgsHk-11" value="" style="html=1;points=[[0,0,0,0,5],[0,1,0,0,-5],[1,0,0,0,5],[1,1,0,0,-5]];perimeter=orthogonalPerimeter;outlineConnect=0;targetShapes=umlLifeline;portConstraint=eastwest;newEdgeStyle={&quot;curved&quot;:0,&quot;rounded&quot;:0};" parent="368ryIqdzKqAlcXKy1S3-11" vertex="1">
          <mxGeometry x="60" y="223" width="9" height="43" as="geometry" />
        </mxCell>
        <mxCell id="0rn-FYZJgUnYV7M9HU_Y-24" value=":OrdemCompra" style="shape=umlLifeline;perimeter=lifelinePerimeter;whiteSpace=wrap;html=1;container=1;dropTarget=0;collapsible=0;recursiveResize=0;outlineConnect=0;portConstraint=eastwest;newEdgeStyle={&quot;curved&quot;:0,&quot;rounded&quot;:0};" parent="1" vertex="1">
          <mxGeometry x="413" y="95" width="130" height="409" as="geometry" />
        </mxCell>
        <mxCell id="0rn-FYZJgUnYV7M9HU_Y-25" value="" style="html=1;points=[[0,0,0,0,5],[0,1,0,0,-5],[1,0,0,0,5],[1,1,0,0,-5]];perimeter=orthogonalPerimeter;outlineConnect=0;targetShapes=umlLifeline;portConstraint=eastwest;newEdgeStyle={&quot;curved&quot;:0,&quot;rounded&quot;:0};" parent="0rn-FYZJgUnYV7M9HU_Y-24" vertex="1">
          <mxGeometry x="60" y="105" width="10" height="222" as="geometry" />
        </mxCell>
        <mxCell id="Dpbqh7HLzEygRbn_yJDt-4" value="" style="edgeStyle=none;orthogonalLoop=1;jettySize=auto;html=1;rounded=0;" parent="1" edge="1">
          <mxGeometry width="100" relative="1" as="geometry">
            <mxPoint x="485" y="246" as="sourcePoint" />
            <mxPoint x="696" y="246" as="targetPoint" />
            <Array as="points" />
          </mxGeometry>
        </mxCell>
        <mxCell id="Dpbqh7HLzEygRbn_yJDt-5" value="obterDadosAcao(dados)" style="edgeLabel;html=1;align=center;verticalAlign=middle;resizable=0;points=[];" parent="Dpbqh7HLzEygRbn_yJDt-4" vertex="1" connectable="0">
          <mxGeometry x="-0.1625" relative="1" as="geometry">
            <mxPoint x="10" y="-8" as="offset" />
          </mxGeometry>
        </mxCell>
        <mxCell id="6YJHS1YPlDP4CpiEFU3A-5" value="" style="edgeStyle=none;orthogonalLoop=1;jettySize=auto;html=1;rounded=0;" parent="1" edge="1">
          <mxGeometry width="100" relative="1" as="geometry">
            <mxPoint x="484" y="320" as="sourcePoint" />
            <mxPoint x="693" y="320" as="targetPoint" />
            <Array as="points" />
          </mxGeometry>
        </mxCell>
        <mxCell id="6YJHS1YPlDP4CpiEFU3A-6" value="obterCotacaoAcao(acao)" style="edgeLabel;html=1;align=center;verticalAlign=middle;resizable=0;points=[];" parent="6YJHS1YPlDP4CpiEFU3A-5" vertex="1" connectable="0">
          <mxGeometry x="-0.1625" relative="1" as="geometry">
            <mxPoint y="-8" as="offset" />
          </mxGeometry>
        </mxCell>
        <mxCell id="6YJHS1YPlDP4CpiEFU3A-7" value="" style="edgeStyle=none;orthogonalLoop=1;jettySize=auto;html=1;rounded=0;startArrow=open;startFill=0;endArrow=none;endFill=0;dashed=1;" parent="1" edge="1">
          <mxGeometry width="100" relative="1" as="geometry">
            <mxPoint x="485" y="284" as="sourcePoint" />
            <mxPoint x="695" y="284" as="targetPoint" />
            <Array as="points" />
          </mxGeometry>
        </mxCell>
        <mxCell id="6YJHS1YPlDP4CpiEFU3A-8" value="acao" style="edgeLabel;html=1;align=center;verticalAlign=middle;resizable=0;points=[];" parent="6YJHS1YPlDP4CpiEFU3A-7" vertex="1" connectable="0">
          <mxGeometry x="-0.1625" relative="1" as="geometry">
            <mxPoint y="-8" as="offset" />
          </mxGeometry>
        </mxCell>
        <mxCell id="6YJHS1YPlDP4CpiEFU3A-9" value="" style="edgeStyle=none;orthogonalLoop=1;jettySize=auto;html=1;rounded=0;startArrow=open;startFill=0;endArrow=none;endFill=0;dashed=1;" parent="1" edge="1">
          <mxGeometry width="100" relative="1" as="geometry">
            <mxPoint x="484" y="362" as="sourcePoint" />
            <mxPoint x="696" y="362" as="targetPoint" />
            <Array as="points" />
          </mxGeometry>
        </mxCell>
        <mxCell id="6YJHS1YPlDP4CpiEFU3A-10" value="cotacao" style="edgeLabel;html=1;align=center;verticalAlign=middle;resizable=0;points=[];" parent="6YJHS1YPlDP4CpiEFU3A-9" vertex="1" connectable="0">
          <mxGeometry x="-0.1625" relative="1" as="geometry">
            <mxPoint y="-8" as="offset" />
          </mxGeometry>
        </mxCell>
        <mxCell id="6YJHS1YPlDP4CpiEFU3A-11" value="" style="endArrow=classic;html=1;rounded=0;curved=1;" parent="1" edge="1">
          <mxGeometry width="50" height="50" relative="1" as="geometry">
            <mxPoint x="484" y="383" as="sourcePoint" />
            <mxPoint x="484" y="409" as="targetPoint" />
            <Array as="points">
              <mxPoint x="507" y="382" />
              <mxPoint x="520" y="386" />
              <mxPoint x="522" y="403" />
              <mxPoint x="510" y="409" />
            </Array>
          </mxGeometry>
        </mxCell>
        <mxCell id="6YJHS1YPlDP4CpiEFU3A-12" value="calculaValorEstimado()" style="edgeLabel;html=1;align=center;verticalAlign=middle;resizable=0;points=[];" parent="6YJHS1YPlDP4CpiEFU3A-11" vertex="1" connectable="0">
          <mxGeometry x="-0.0924" relative="1" as="geometry">
            <mxPoint x="60" y="3" as="offset" />
          </mxGeometry>
        </mxCell>
        <mxCell id="6YJHS1YPlDP4CpiEFU3A-13" value="" style="endArrow=none;html=1;rounded=0;startArrow=open;startFill=0;endFill=0;dashed=1;" parent="1" source="YaiohfjEREE9zaIFgsHk-4" edge="1">
          <mxGeometry width="50" height="50" relative="1" as="geometry">
            <mxPoint x="329" y="422" as="sourcePoint" />
            <mxPoint x="472" y="422" as="targetPoint" />
          </mxGeometry>
        </mxCell>
        <mxCell id="6YJHS1YPlDP4CpiEFU3A-14" value="responde com valor&lt;div&gt;da simulação&lt;/div&gt;" style="edgeLabel;html=1;align=center;verticalAlign=middle;resizable=0;points=[];" parent="6YJHS1YPlDP4CpiEFU3A-13" vertex="1" connectable="0">
          <mxGeometry x="0.3354" y="1" relative="1" as="geometry">
            <mxPoint x="-24" y="17" as="offset" />
          </mxGeometry>
        </mxCell>
        <mxCell id="4X81auk2REAt7T9Uu4Yk-1" value="" style="endArrow=none;dashed=1;html=1;rounded=0;" parent="1" source="YaiohfjEREE9zaIFgsHk-1" edge="1">
          <mxGeometry width="50" height="50" relative="1" as="geometry">
            <mxPoint x="863.28" y="507" as="sourcePoint" />
            <mxPoint x="863" y="168" as="targetPoint" />
          </mxGeometry>
        </mxCell>
        <mxCell id="4X81auk2REAt7T9Uu4Yk-2" value="" style="html=1;points=[[0,0,0,0,5],[0,1,0,0,-5],[1,0,0,0,5],[1,1,0,0,-5]];perimeter=orthogonalPerimeter;outlineConnect=0;targetShapes=umlLifeline;portConstraint=eastwest;newEdgeStyle={&quot;curved&quot;:0,&quot;rounded&quot;:0};" parent="1" vertex="1">
          <mxGeometry x="858" y="257" width="10" height="20" as="geometry" />
        </mxCell>
        <mxCell id="4X81auk2REAt7T9Uu4Yk-3" value="API B3" style="shape=umlActor;verticalLabelPosition=bottom;verticalAlign=top;html=1;" parent="1" vertex="1">
          <mxGeometry x="846" y="76" width="30" height="60" as="geometry" />
        </mxCell>
        <mxCell id="4X81auk2REAt7T9Uu4Yk-4" value="" style="edgeStyle=none;orthogonalLoop=1;jettySize=auto;html=1;rounded=0;" parent="1" edge="1">
          <mxGeometry width="100" relative="1" as="geometry">
            <mxPoint x="705" y="258" as="sourcePoint" />
            <mxPoint x="858" y="258" as="targetPoint" />
            <Array as="points" />
          </mxGeometry>
        </mxCell>
        <mxCell id="4X81auk2REAt7T9Uu4Yk-5" value="solicita dados da ação" style="edgeLabel;html=1;align=center;verticalAlign=middle;resizable=0;points=[];" parent="4X81auk2REAt7T9Uu4Yk-4" vertex="1" connectable="0">
          <mxGeometry x="-0.1625" relative="1" as="geometry">
            <mxPoint x="12" y="-9" as="offset" />
          </mxGeometry>
        </mxCell>
        <mxCell id="4X81auk2REAt7T9Uu4Yk-6" value="" style="edgeStyle=none;orthogonalLoop=1;jettySize=auto;html=1;rounded=0;endArrow=none;endFill=0;startArrow=open;startFill=0;dashed=1;" parent="1" edge="1">
          <mxGeometry width="100" relative="1" as="geometry">
            <mxPoint x="706" y="276" as="sourcePoint" />
            <mxPoint x="856" y="276" as="targetPoint" />
            <Array as="points" />
          </mxGeometry>
        </mxCell>
        <mxCell id="4X81auk2REAt7T9Uu4Yk-7" value="responde dados da ação" style="edgeLabel;html=1;align=center;verticalAlign=middle;resizable=0;points=[];" parent="4X81auk2REAt7T9Uu4Yk-6" vertex="1" connectable="0">
          <mxGeometry x="-0.1625" relative="1" as="geometry">
            <mxPoint x="12" y="-8" as="offset" />
          </mxGeometry>
        </mxCell>
        <mxCell id="4X81auk2REAt7T9Uu4Yk-8" value="" style="edgeStyle=none;orthogonalLoop=1;jettySize=auto;html=1;rounded=0;" parent="1" edge="1">
          <mxGeometry width="100" relative="1" as="geometry">
            <mxPoint x="705" y="328" as="sourcePoint" />
            <mxPoint x="858" y="328" as="targetPoint" />
            <Array as="points" />
          </mxGeometry>
        </mxCell>
        <mxCell id="4X81auk2REAt7T9Uu4Yk-9" value="solicita cotação da ação" style="edgeLabel;html=1;align=center;verticalAlign=middle;resizable=0;points=[];" parent="4X81auk2REAt7T9Uu4Yk-8" vertex="1" connectable="0">
          <mxGeometry x="-0.1625" relative="1" as="geometry">
            <mxPoint x="12" y="-9" as="offset" />
          </mxGeometry>
        </mxCell>
        <mxCell id="4X81auk2REAt7T9Uu4Yk-10" value="" style="edgeStyle=none;orthogonalLoop=1;jettySize=auto;html=1;rounded=0;endArrow=none;endFill=0;startArrow=open;startFill=0;dashed=1;" parent="1" edge="1">
          <mxGeometry width="100" relative="1" as="geometry">
            <mxPoint x="706" y="347" as="sourcePoint" />
            <mxPoint x="856" y="347" as="targetPoint" />
            <Array as="points" />
          </mxGeometry>
        </mxCell>
        <mxCell id="4X81auk2REAt7T9Uu4Yk-11" value="responde cotação da ação" style="edgeLabel;html=1;align=center;verticalAlign=middle;resizable=0;points=[];" parent="4X81auk2REAt7T9Uu4Yk-10" vertex="1" connectable="0">
          <mxGeometry x="-0.1625" relative="1" as="geometry">
            <mxPoint x="12" y="-8" as="offset" />
          </mxGeometry>
        </mxCell>
        <mxCell id="8qsYikxYjyh9_-L8PXw8-1" value="[se logado e na tela de&amp;nbsp;&lt;div&gt;compra ou carteira]&lt;/div&gt;" style="text;html=1;align=center;verticalAlign=middle;resizable=0;points=[];autosize=1;strokeColor=none;fillColor=none;" parent="1" vertex="1">
          <mxGeometry x="151" y="151" width="143" height="41" as="geometry" />
        </mxCell>
        <mxCell id="YaiohfjEREE9zaIFgsHk-2" value="" style="endArrow=none;dashed=1;html=1;rounded=0;" parent="1" target="YaiohfjEREE9zaIFgsHk-1" edge="1">
          <mxGeometry width="50" height="50" relative="1" as="geometry">
            <mxPoint x="863.28" y="507" as="sourcePoint" />
            <mxPoint x="863" y="168" as="targetPoint" />
          </mxGeometry>
        </mxCell>
        <mxCell id="YaiohfjEREE9zaIFgsHk-1" value="" style="html=1;points=[[0,0,0,0,5],[0,1,0,0,-5],[1,0,0,0,5],[1,1,0,0,-5]];perimeter=orthogonalPerimeter;outlineConnect=0;targetShapes=umlLifeline;portConstraint=eastwest;newEdgeStyle={&quot;curved&quot;:0,&quot;rounded&quot;:0};" parent="1" vertex="1">
          <mxGeometry x="858" y="328" width="10" height="20" as="geometry" />
        </mxCell>
        <mxCell id="YaiohfjEREE9zaIFgsHk-3" value="&lt;b&gt;:Interface&lt;/b&gt;" style="shape=umlLifeline;perimeter=lifelinePerimeter;whiteSpace=wrap;html=1;container=0;dropTarget=0;collapsible=0;recursiveResize=0;outlineConnect=0;portConstraint=eastwest;newEdgeStyle={&quot;edgeStyle&quot;:&quot;elbowEdgeStyle&quot;,&quot;elbow&quot;:&quot;vertical&quot;,&quot;curved&quot;:0,&quot;rounded&quot;:0};" parent="1" vertex="1">
          <mxGeometry x="276" y="95" width="104" height="409" as="geometry" />
        </mxCell>
        <mxCell id="YaiohfjEREE9zaIFgsHk-4" value="" style="html=1;points=[];perimeter=orthogonalPerimeter;outlineConnect=0;targetShapes=umlLifeline;portConstraint=eastwest;newEdgeStyle={&quot;edgeStyle&quot;:&quot;elbowEdgeStyle&quot;,&quot;elbow&quot;:&quot;vertical&quot;,&quot;curved&quot;:0,&quot;rounded&quot;:0};" parent="YaiohfjEREE9zaIFgsHk-3" vertex="1">
          <mxGeometry x="47" y="77" width="10" height="294" as="geometry" />
        </mxCell>
        <mxCell id="YaiohfjEREE9zaIFgsHk-7" value="" style="endArrow=classic;html=1;rounded=0;fontSize=12;startSize=8;endSize=8;curved=1;" parent="1" target="YaiohfjEREE9zaIFgsHk-4" edge="1">
          <mxGeometry width="50" height="50" relative="1" as="geometry">
            <mxPoint x="122" y="191" as="sourcePoint" />
            <mxPoint x="172" y="141" as="targetPoint" />
          </mxGeometry>
        </mxCell>
        <mxCell id="YaiohfjEREE9zaIFgsHk-8" value="escolhe a opção&lt;div&gt;&quot;nova ordem de compra&quot;&lt;/div&gt;&lt;div&gt;e insere dados da ordem&lt;/div&gt;&lt;div&gt;(ação, quantidade, tipo de&lt;/div&gt;&lt;div&gt;execução, etc.)&lt;/div&gt;" style="edgeLabel;html=1;align=center;verticalAlign=middle;resizable=0;points=[];fontSize=12;" parent="YaiohfjEREE9zaIFgsHk-7" vertex="1" connectable="0">
          <mxGeometry x="-0.1244" y="-1" relative="1" as="geometry">
            <mxPoint x="12" y="44" as="offset" />
          </mxGeometry>
        </mxCell>
        <mxCell id="YaiohfjEREE9zaIFgsHk-9" value="" style="endArrow=none;html=1;rounded=0;startArrow=open;startFill=0;endFill=0;dashed=1;" parent="1" source="368ryIqdzKqAlcXKy1S3-2" edge="1">
          <mxGeometry width="50" height="50" relative="1" as="geometry">
            <mxPoint x="185" y="436" as="sourcePoint" />
            <mxPoint x="324" y="436" as="targetPoint" />
          </mxGeometry>
        </mxCell>
        <mxCell id="YaiohfjEREE9zaIFgsHk-10" value="exibe dados da ação e custo de&lt;div&gt;compra da ordem&lt;/div&gt;" style="edgeLabel;html=1;align=center;verticalAlign=middle;resizable=0;points=[];" parent="YaiohfjEREE9zaIFgsHk-9" vertex="1" connectable="0">
          <mxGeometry x="0.3354" y="1" relative="1" as="geometry">
            <mxPoint x="-32" y="18" as="offset" />
          </mxGeometry>
        </mxCell>
        <mxCell id="dej6JPiimBgdFZPe7avW-1" value="UC-07&lt;div&gt;Simular ordem de&lt;br&gt;compra&lt;/div&gt;" style="strokeWidth=2;html=1;shape=mxgraph.flowchart.start_1;whiteSpace=wrap;" parent="1" vertex="1">
          <mxGeometry x="458" y="-14" width="134" height="83" as="geometry" />
        </mxCell>
      </root>
    </mxGraphModel>
  </diagram>
</mxfile>
